<svg xmlns="http://www.w3.org/2000/svg" viewBox="0 0 64 64">

  <!-- Draw connections -->
  <line x1="32" y1="8" x2="52" y2="16" stroke="#4b5563" stroke-width="0.5" opacity="0.6"/>
  <line x1="52" y1="16" x2="56" y2="32" stroke="#4b5563" stroke-width="0.5" opacity="0.6"/>
  <line x1="56" y1="32" x2="52" y2="48" stroke="#4b5563" stroke-width="0.5" opacity="0.6"/>
  <line x1="52" y1="48" x2="32" y2="56" stroke="#4b5563" stroke-width="0.5" opacity="0.6"/>
  <line x1="32" y1="56" x2="12" y2="48" stroke="#4b5563" stroke-width="0.5" opacity="0.6"/>
  <line x1="12" y1="48" x2="8" y2="32" stroke="#4b5563" stroke-width="0.5" opacity="0.6"/>
  <line x1="8" y1="32" x2="12" y2="16" stroke="#4b5563" stroke-width="0.5" opacity="0.6"/>
  <line x1="12" y1="16" x2="32" y2="8" stroke="#4b5563" stroke-width="0.5" opacity="0.6"/>

  <!-- Draw mesh connections -->
  <line x1="32" y1="8" x2="56" y2="32" stroke="#4b5563" stroke-width="0.3" opacity="0.4"/>
  <line x1="32" y1="8" x2="32" y2="56" stroke="#4b5563" stroke-width="0.3" opacity="0.4"/>
  <line x1="32" y1="8" x2="8" y2="32" stroke="#4b5563" stroke-width="0.3" opacity="0.4"/>
  <line x1="52" y1="16" x2="52" y2="48" stroke="#4b5563" stroke-width="0.3" opacity="0.4"/>
  <line x1="52" y1="16" x2="12" y2="48" stroke="#4b5563" stroke-width="0.3" opacity="0.4"/>
  <line x1="56" y1="32" x2="8" y2="32" stroke="#4b5563" stroke-width="0.3" opacity="0.4"/>
  <line x1="56" y1="32" x2="12" y2="16" stroke="#4b5563" stroke-width="0.3" opacity="0.4"/>
  <line x1="52" y1="48" x2="12" y2="16" stroke="#4b5563" stroke-width="0.3" opacity="0.4"/>
  <line x1="32" y1="56" x2="8" y2="32" stroke="#4b5563" stroke-width="0.3" opacity="0.4"/>
  <line x1="12" y1="48" x2="12" y2="16" stroke="#4b5563" stroke-width="0.3" opacity="0.4"/>

  <!-- Draw nodes -->
  <circle cx="32" cy="8" r="3" fill="#10b981"/>
  <circle cx="52" cy="16" r="3" fill="#3b82f6"/>
  <circle cx="56" cy="32" r="3" fill="#3b82f6"/>
  <circle cx="52" cy="48" r="3" fill="#3b82f6"/>
  <circle cx="32" cy="56" r="3" fill="#3b82f6"/>
  <circle cx="12" cy="48" r="3" fill="#3b82f6"/>
  <circle cx="8" cy="32" r="3" fill="#3b82f6"/>
  <circle cx="12" cy="16" r="3" fill="#3b82f6"/>
</svg>